# xmcd
#
# Track frame offsets: 
#        150
#        19625
#        33647
#        56219
#        70893
#        85008
#        102125
#        130135
#        148392
#        167495
#        192935
#        209581
#        223521
#        243607
#
# Disc length: 3559 seconds
#
# Revision: 0
# Processed by: cddbd v1.5.2PL0 Copyright (c) Steve Scherf et al.
# Submitted via: ExactAudioCopy v1.0b1
#
DISCID=d10de50e
DTITLE=Chris Bell and 100% Blues - The Devil, My Guitar and Me
DYEAR=2010
DGENRE=Blues
TTITLE0=Sweet Josephine
TTITLE1=The Devil, My Guitar and Me
TTITLE2=It's Not My Cross To Bear
TTITLE3=My Jimmy Hendrix Stuff
TTITLE4=Long Train Ride
TTITLE5=Something To Blame
TTITLE6=I Don't Like To Brag
TTITLE7=Working Man
TTITLE8=Why My Baby So Cold
TTITLE9=More Things Change
TTITLE10=Testify
TTITLE11=The Water
TTITLE12=John Lee Hooker
TTITLE13=Don't Wake Me Up
EXTD=
EXTT0=
EXTT1=
EXTT2=
EXTT3=
EXTT4=
EXTT5=
EXTT6=
EXTT7=
EXTT8=
EXTT9=
EXTT10=
EXTT11=
EXTT12=
EXTT13=
PLAYORDER=
